<svg width="30" height="30" viewBox="0 0 30 30" fill="none" xmlns="http://www.w3.org/2000/svg">
<g clip-path="url(#clip0_21820_96717)">
<path d="M28.8672 12.3917L16.6304 12.3911C16.0901 12.3911 15.6521 12.829 15.6521 13.3694V17.2785C15.6521 17.8187 16.0901 18.2568 16.6304 18.2568H23.5214C22.7668 20.215 21.3584 21.855 19.5616 22.897L22.4999 27.9835C27.2133 25.2575 29.9999 20.4746 29.9999 15.1204C29.9999 14.358 29.9437 13.8131 29.8313 13.1994C29.7459 12.7332 29.3411 12.3917 28.8672 12.3917Z" fill="#167EE6"/>
<path d="M15.0001 24.1306C11.6278 24.1306 8.6838 22.2881 7.10265 19.5615L2.01636 22.4932C4.60474 26.9793 9.4536 30.0002 15.0001 30.0002C17.721 30.0002 20.2884 29.2676 22.5001 27.9909V27.9839L19.5618 22.8974C18.2178 23.6769 16.6625 24.1306 15.0001 24.1306Z" fill="#12B347"/>
<path d="M22.5 27.9905V27.9835L19.5617 22.897C18.2177 23.6764 16.6625 24.1302 15 24.1302V29.9998C17.7209 29.9998 20.2884 29.2672 22.5 27.9905Z" fill="#0F993E"/>
<path d="M5.86957 14.9999C5.86957 13.3376 6.3232 11.7825 7.10256 10.4385L2.01627 7.50684C0.732539 9.71154 0 12.272 0 14.9999C0 17.7278 0.732539 20.2882 2.01627 22.4929L7.10256 19.5612C6.3232 18.2172 5.86957 16.6621 5.86957 14.9999Z" fill="#FFD500"/>
<path d="M15.0001 5.86957C17.1992 5.86957 19.2191 6.65098 20.7969 7.95076C21.1861 8.27139 21.7518 8.24824 22.1084 7.8917L24.8781 5.12197C25.2826 4.71744 25.2538 4.05527 24.8217 3.68039C22.1782 1.38709 18.7388 0 15.0001 0C9.4536 0 4.60474 3.02092 2.01636 7.50697L7.10265 10.4387C8.6838 7.71211 11.6278 5.86957 15.0001 5.86957Z" fill="#FF4B26"/>
<path d="M20.7968 7.95076C21.186 8.27139 21.7518 8.24824 22.1083 7.8917L24.878 5.12197C25.2825 4.71744 25.2537 4.05527 24.8216 3.68039C22.1781 1.38703 18.7387 0 15 0V5.86957C17.199 5.86957 19.219 6.65098 20.7968 7.95076Z" fill="#D93F21"/>
</g>
<defs>
<clipPath id="clip0_21820_96717">
<rect width="30" height="30" fill="white"/>
</clipPath>
</defs>
</svg>
