<svg width="190" height="45" viewBox="0 0 190 45" fill="none" xmlns="http://www.w3.org/2000/svg">
<circle cx="22.5" cy="22.5" r="22" fill="white" stroke="white"/>
<path fill-rule="evenodd" clip-rule="evenodd" d="M36.6229 16.8121C35.7103 17.4365 35.1317 18.1811 34.8969 19.0333C34.7601 19.53 34.7128 20.014 34.7961 20.0656C34.9241 20.1446 35.7889 19.6569 36.1962 19.2758C36.6376 18.8629 36.9829 18.2784 37.1386 17.6805C37.2392 17.2944 37.2701 16.4628 37.1839 16.4628C37.1562 16.4628 36.9037 16.62 36.6229 16.8121ZM35.18 19.2461C35.1319 19.2096 35.3648 18.765 35.5062 18.6237C35.7517 18.378 35.7407 18.4346 35.4596 18.8636C35.3165 19.082 35.1907 19.2541 35.18 19.2461Z" fill="#4600E9"/>
<path d="M15.7292 23.1501C15.7163 23.163 15.4627 23.1438 15.1656 23.1075L14.647 23.044C14.6331 23.0423 14.6203 23.0357 14.6109 23.0254L14.3186 22.7056C13.6826 22.0097 12.9899 21.7875 11.4517 21.7862C10.3174 21.7851 10.2809 21.7994 10.4722 22.1709C10.9419 23.0831 12.0044 23.6637 13.2041 23.6637C13.5263 23.6637 13.9434 23.6239 14.131 23.5753C14.3278 23.5242 14.5129 23.5087 14.5687 23.5385C14.6218 23.567 15.0567 23.6561 15.535 23.7366L16.4047 23.8829L15.7292 23.1501Z" fill="#4600E9"/>
<path fill-rule="evenodd" clip-rule="evenodd" d="M14.976 13.3019C14.9763 12.9912 15.0136 12.6314 15.0591 12.5022C15.1046 12.3731 15.1659 12.2674 15.1953 12.2674C15.2889 12.2674 15.5138 12.6337 15.6479 13.0045C15.7862 13.3868 15.8397 14.4353 15.7394 14.7957L15.7151 14.8827C15.7034 14.925 15.6508 14.9397 15.6188 14.9096L15.5332 14.8292C15.1514 14.4705 14.9756 13.795 14.976 13.3019ZM32.4601 16.468C32.484 16.3295 32.5886 16.2048 32.7924 15.9456C33.0025 15.6784 33.1964 15.4732 33.2231 15.4898C33.3016 15.5383 33.6522 16.515 33.7857 17.0576C33.9903 17.8888 34.0607 18.6202 34.0207 19.4997C33.9479 21.097 33.4162 22.5695 32.3114 24.233C31.7587 25.0652 30.9991 25.9615 29.4797 27.5745C27.9113 29.2394 27.7257 29.4444 27.2249 30.0652C25.7287 31.9201 24.9643 33.7269 24.9627 35.4119C24.9616 36.5983 25.3238 37.7996 26.0039 38.8652C26.1198 39.0468 26.2145 39.2088 26.2145 39.2253C26.2145 39.2419 24.7494 39.2554 22.9586 39.2554C21.1679 39.2554 19.7028 39.2422 19.7028 39.226C19.7028 39.2099 19.911 38.7661 20.1655 38.2398C20.6435 37.2513 20.8369 36.7627 21.5728 34.6844C23.1646 30.1889 24.3995 28.2722 27.2272 25.9079C28.558 24.7954 29.9301 23.7163 31.0897 22.4193C31.2837 22.2023 31.4704 21.9786 31.6388 21.7412C32.0559 21.1534 32.4215 20.4386 32.6386 19.7815C32.7943 19.31 32.8146 19.1563 32.8162 18.4352C32.8173 17.9515 32.7869 17.5375 32.6161 17.0849L32.6155 17.0834C32.4942 16.7621 32.436 16.608 32.4601 16.468Z" fill="#4600E9"/>
<path d="M35.4811 11.7898C34.5173 12.1906 33.8794 12.8688 33.7201 13.662C33.6277 14.1221 33.6879 14.459 33.8625 14.459C34.2701 14.459 35.2969 13.68 35.6485 13.104C35.8334 12.8012 36.0446 12.1345 36.0446 11.8538C36.0446 11.5954 35.9691 11.5868 35.4811 11.7898Z" fill="#4600E9"/>
<path d="M27.6882 8.39297C26.903 9.3224 26.9078 11.2161 27.6977 12.139L27.9047 12.3809C27.9149 12.3928 27.9199 12.4082 27.9186 12.4238L27.8772 12.9126C27.8238 13.5444 27.6542 14.3466 27.4361 14.999C27.0492 16.1565 26.0549 17.8851 24.9735 19.2805C24.3888 20.035 22.9932 21.7331 22.716 22.0332C22.692 22.0592 22.6488 22.1039 22.6273 22.132L22.0293 22.917L21.6574 23.4939C21.4528 23.8111 21.2463 24.1463 21.1985 24.2387L21.1526 24.3275C21.1332 24.3649 21.0819 24.3702 21.0553 24.3375L20.7046 23.9061C20.2565 23.3549 19.642 22.7899 18.8231 22.1763L18.3054 21.7883C18.294 21.7798 18.2862 21.7675 18.2832 21.7536L17.9887 20.3557C17.4489 17.7938 17.3765 17.4994 17.2085 17.1829C16.9901 16.7711 15.5462 15.3292 14.6879 14.6656L14.0427 14.1669C14.031 14.1578 14.0232 14.1447 14.0208 14.1301L13.9508 13.7062C13.8552 13.1273 13.6455 12.723 13.2294 12.3149C12.9029 11.9948 11.906 11.3402 11.8423 11.4039C11.8248 11.4214 11.78 11.6087 11.7428 11.8202C11.5555 12.8834 12.1712 14.0341 13.2038 14.5507C13.4471 14.6725 13.7027 14.7721 13.7718 14.7721C13.8408 14.7721 14.0977 14.9334 14.3425 15.1305C15.0287 15.683 16.5084 17.1549 16.6434 17.4192C16.7099 17.5492 16.8323 17.986 16.9156 18.3898C16.9989 18.7936 17.1663 19.5592 17.2875 20.091C17.4087 20.623 17.4963 21.0697 17.4823 21.0838C17.4363 21.1297 16.0355 20.055 15.5749 19.6205C14.9627 19.043 14.4498 18.2615 14.2302 17.5718C14.0615 17.0419 13.8664 16.9475 13.4503 16.588C13.1713 16.3469 12.9161 16.1497 12.8831 16.1497C12.7861 16.1497 12.7212 16.6919 12.7257 17.4646C12.7325 18.6236 13.0388 19.5275 13.8653 20.8274C13.9455 20.9535 13.9061 20.9454 13.408 20.7335C12.6673 20.4183 11.5881 19.5488 11.5271 19.2179C11.4761 18.9419 11.252 18.5484 11.0209 18.3292C10.792 18.112 10.2362 17.8586 9.81256 17.7782C9.30709 17.6824 8.18213 17.6951 8.18213 17.7968C8.18213 18.0035 8.53708 18.5544 8.86717 18.86C9.38629 19.3407 10.1406 19.6562 10.7705 19.6562C10.9854 19.6562 11.0671 19.7047 11.4313 20.0483C12.1394 20.7163 12.6046 21.0344 13.3369 21.3517C14.58 21.8901 14.8323 22.0513 15.3153 22.6158C15.5558 22.8968 15.742 23.1372 15.7292 23.1501L16.4047 23.8829L16.8176 24.3525C18.9799 26.8119 20.3586 28.9308 20.9268 30.6679C20.9847 30.845 21.0519 30.9899 21.0761 30.9899C21.1004 30.9899 21.2161 30.7716 21.3333 30.5047C21.8042 29.4318 22.6714 28.0042 23.229 27.3841C23.4681 27.1181 23.531 26.9873 23.669 26.4688C24.0721 24.9542 24.6993 23.5955 25.8515 21.7412C26.2795 21.0522 26.3217 21.008 28.2062 19.2678C30.7391 16.9289 30.9727 16.7044 31.1929 16.398C31.2958 16.2547 31.5308 15.9782 31.7151 15.7836C32.5199 14.9331 32.914 13.9724 32.914 12.8605C32.914 12.2533 32.8005 11.7469 32.6122 11.5143L32.5429 11.4287C32.5201 11.4006 32.4775 11.3997 32.4536 11.4268L32.2024 11.7116C31.2084 12.8389 30.7963 14.0096 30.9675 15.2197L31.0439 15.7593C31.0464 15.777 31.0406 15.795 31.0282 15.808L30.807 16.0383C30.6745 16.1763 30.0307 16.7758 29.3764 17.3706C28.7221 17.9653 27.9836 18.6497 27.7353 18.8914L27.5324 19.0888C27.4852 19.1348 27.4098 19.0796 27.4394 19.0207L27.5242 18.8517C28.5881 16.732 28.9743 14.7737 28.69 12.9409C28.5807 12.2362 28.5807 12.236 28.7186 11.8917C28.925 11.3765 28.952 10.72 28.7926 10.0897C28.6588 9.56053 28.2527 8.66567 28.0059 8.35615L27.9112 8.23733C27.8882 8.2085 27.8446 8.20788 27.8208 8.23604L27.6882 8.39297Z" fill="#4600E9"/>
<path d="M21.5114 37.438H24.4288L24.753 38.4317H21.1873L21.5114 37.438Z" fill="white"/>
<path d="M22.0123 36.0356H24.1596L24.3744 36.6786H21.7439L22.0123 36.0356Z" fill="white"/>
<path d="M22.5156 34.749H24.0967L24.3437 35.2751H22.2686L22.5156 34.749Z" fill="white"/>
<path d="M22.9719 33.5508H24.2857L24.491 33.9892H22.7666L22.9719 33.5508Z" fill="white"/>
<path d="M23.4317 32.4692H24.5005L24.6676 32.7907H23.2646L23.4317 32.4692Z" fill="white"/>
<circle cx="27.6468" cy="38.6068" r="0.672229" fill="#4600E9"/>
<path d="M73.5794 8.45752H80.1986L70.1177 26.1398V34.9621H63.879V26.1398L53.7981 8.45752H60.4172L66.9983 20.4982L73.5794 8.45752Z" fill="white"/>
<path d="M88.2333 35.3786C85.3421 35.3786 82.9456 34.4825 81.0435 32.6903C79.1415 30.8728 78.1904 28.5126 78.1904 25.6098C78.1904 22.7321 79.1288 20.3846 81.0055 18.5671C82.9075 16.7497 85.2534 15.8409 88.0431 15.8409C90.782 15.8409 93.0518 16.6992 94.8524 18.4157C96.653 20.1069 97.5533 22.3409 97.5533 25.1175C97.5533 25.6224 97.5153 26.2534 97.4392 27.0107H84.315C84.5179 28.1971 84.9617 29.0932 85.6465 29.699C86.3566 30.3048 87.2062 30.6078 88.1952 30.6078C89.0321 30.6078 89.7549 30.4058 90.3636 30.0019C90.9722 29.5728 91.3526 29.0049 91.5048 28.2981L96.7925 29.699C96.2853 31.567 95.2455 32.9805 93.6731 33.9398C92.1261 34.899 90.3128 35.3786 88.2333 35.3786ZM84.5052 23.2243H91.733C91.5809 22.5428 91.1751 21.9496 90.5157 21.4448C89.8817 20.9147 89.0702 20.6496 88.0811 20.6496C86.3059 20.6496 85.1139 21.5079 84.5052 23.2243Z" fill="white"/>
<path d="M117.779 30.1155C117.982 30.1155 118.274 30.0524 118.654 29.9262V35.0378C118.122 35.2397 117.373 35.3407 116.41 35.3407C113.975 35.3407 112.327 34.6592 111.464 33.2961C110.146 34.6592 108.256 35.3407 105.796 35.3407C103.869 35.3407 102.297 34.8359 101.079 33.8262C99.8873 32.8165 99.2913 31.4281 99.2913 29.6612C99.2913 28.0204 99.8366 26.6952 100.927 25.6855C102.018 24.6758 103.489 24.0826 105.34 23.9059L110.78 23.4137V23.035C110.78 22.303 110.526 21.7224 110.019 21.2933C109.512 20.8389 108.865 20.6118 108.079 20.6118C106.659 20.6118 105.809 21.2933 105.53 22.6564L100.09 21.8991C100.42 19.7788 101.358 18.239 102.905 17.2797C104.478 16.3205 106.354 15.8409 108.535 15.8409C111.122 15.8409 113.151 16.4594 114.622 17.6962C116.118 18.9079 116.866 20.637 116.866 22.8836V29.0932C116.866 29.7748 117.171 30.1155 117.779 30.1155ZM110.78 27.6165V27.2L107.204 27.6165C106.595 27.6923 106.113 27.8942 105.758 28.2223C105.403 28.5253 105.226 28.8913 105.226 29.3204C105.226 29.8252 105.441 30.2165 105.872 30.4942C106.329 30.7718 106.9 30.898 107.584 30.8728C108.497 30.8223 109.258 30.5194 109.867 29.9641C110.475 29.4087 110.78 28.6262 110.78 27.6165Z" fill="white"/>
<path d="M132.342 15.8409C134.472 15.8409 136.209 16.4594 137.553 17.6962C138.923 18.9331 139.607 20.6622 139.607 22.8836V34.9621H133.521V24.7389C133.521 23.603 133.242 22.7574 132.684 22.202C132.126 21.6214 131.365 21.3312 130.401 21.3312C129.438 21.3312 128.664 21.6341 128.081 22.2399C127.523 22.8457 127.244 23.7292 127.244 24.8903V34.9621H121.157V8.45752H127.244V17.772C128.487 16.4846 130.186 15.8409 132.342 15.8409Z" fill="white"/>
<path d="M155.399 16.2196H161.486V34.9621H155.399V33.4097C154.157 34.697 152.457 35.3407 150.302 35.3407C148.273 35.3407 146.548 34.697 145.128 33.4097C143.733 32.0971 143.036 30.267 143.036 27.9194V16.2196H149.122V26.5942C149.122 27.6796 149.401 28.5 149.959 29.0553C150.517 29.5854 151.278 29.8505 152.242 29.8505C153.205 29.8505 153.966 29.5476 154.524 28.9418C155.108 28.3359 155.399 27.4524 155.399 26.2913V16.2196Z" fill="white"/>
<path d="M176.557 15.8409C179.144 15.8409 181.338 16.7623 183.139 18.605C184.939 20.4224 185.839 22.7574 185.839 25.6098C185.839 28.4117 184.952 30.734 183.177 32.5767C181.401 34.4194 179.208 35.3407 176.595 35.3407C174.364 35.3407 172.538 34.6592 171.118 33.2961V34.9621H165.031V8.45752H171.118V17.8477C172.512 16.5099 174.326 15.8409 176.557 15.8409ZM175.34 30.0777C176.507 30.0777 177.496 29.6738 178.307 28.866C179.119 28.033 179.525 26.9476 179.525 25.6098C179.525 24.2467 179.119 23.1612 178.307 22.3535C177.521 21.5205 176.532 21.104 175.34 21.104C174.123 21.104 173.108 21.5205 172.297 22.3535C171.511 23.1612 171.118 24.2467 171.118 25.6098C171.118 26.9476 171.511 28.033 172.297 28.866C173.108 29.6738 174.123 30.0777 175.34 30.0777Z" fill="white"/>
</svg>
